# xmcd
#
# Track frame offsets:
#   150
#   21294
#   45564
#   64034
#   84257
#   105943
#   119819
#   134892
#   154562
#   170154
#   191015
#
# Disc length: 2859 seconds
#
# Revision: 3
# Processed by: cddbd v1.5.2PL0 Copyright (c) Steve Scherf et al.
# Submitted via: Media_Universe 3.0
#
DISCID=950b290b
DTITLE=Alannah Myles - Alannah Myles - Black Velvet
DYEAR=2007
DGENRE=Pop Rock
TTITLE0=Alannah Myles - Black Velvet
TTITLE1=Alannah Myles - Comment ça va
TTITLE2=Alannah Myles - Prime Of My Life
TTITLE3=Alannah Myles - Only Wings
TTITLE4=Alannah Myles - Leave It Alone
TTITLE5=Alannah Myles - Anywhere But Home
TTITLE6=Alannah Myles - Faces In The Crowd
TTITLE7=Alannah Myles - Give Me Love
TTITLE8=Alannah Myles - What Is Love
TTITLE9=Alannah Myles - I Love You
TTITLE10=Alannah Myles - Trouble
EXTD=
EXTT0=
EXTT1=
EXTT2=
EXTT3=
EXTT4=
EXTT5=
EXTT6=
EXTT7=
EXTT8=
EXTT9=
EXTT10=
PLAYORDER=
